<mxfile host="app.diagrams.net" agent="Mozilla/5.0 (Macintosh; Intel Mac OS X 10_15_7) AppleWebKit/537.36 (KHTML, like Gecko) Chrome/134.0.0.0 Safari/537.36" version="26.2.5">
  <diagram id="68Z6XZG3NbRrDApSsJgM" name="Page-1">
    <mxGraphModel dx="1955" dy="1180" grid="1" gridSize="10" guides="1" tooltips="1" connect="1" arrows="1" fold="1" page="1" pageScale="1" pageWidth="827" pageHeight="1169" math="0" shadow="0">
      <root>
        <mxCell id="0" />
        <mxCell id="1" parent="0" />
        <mxCell id="iQWYw39QzCIdHBORsN6B-141" value="APIs Partenaires" style="rounded=0;whiteSpace=wrap;html=1;dashed=1;strokeColor=#FF9933;strokeWidth=2;fontSize=12;fontColor=#FF9933;fillColor=none;align=right;verticalAlign=bottom;fontStyle=1" parent="1" vertex="1">
          <mxGeometry x="1125" y="430" width="430" height="460" as="geometry" />
        </mxCell>
        <mxCell id="iQWYw39QzCIdHBORsN6B-7" style="edgeStyle=orthogonalEdgeStyle;rounded=0;orthogonalLoop=1;jettySize=auto;html=1;endArrow=none;endFill=0;fontSize=12;fontStyle=1" parent="1" source="iQWYw39QzCIdHBORsN6B-1" target="iQWYw39QzCIdHBORsN6B-2" edge="1">
          <mxGeometry relative="1" as="geometry">
            <Array as="points">
              <mxPoint x="770" y="360" />
            </Array>
          </mxGeometry>
        </mxCell>
        <mxCell id="iQWYw39QzCIdHBORsN6B-30" style="edgeStyle=orthogonalEdgeStyle;rounded=0;orthogonalLoop=1;jettySize=auto;html=1;endArrow=none;endFill=0;fontSize=12;fontStyle=1" parent="1" source="iQWYw39QzCIdHBORsN6B-1" target="iQWYw39QzCIdHBORsN6B-28" edge="1">
          <mxGeometry relative="1" as="geometry">
            <Array as="points">
              <mxPoint x="430" y="240" />
              <mxPoint x="500" y="240" />
            </Array>
          </mxGeometry>
        </mxCell>
        <mxCell id="iQWYw39QzCIdHBORsN6B-31" style="edgeStyle=orthogonalEdgeStyle;rounded=0;orthogonalLoop=1;jettySize=auto;html=1;endArrow=none;endFill=0;fontSize=12;fontStyle=1" parent="1" source="iQWYw39QzCIdHBORsN6B-1" target="iQWYw39QzCIdHBORsN6B-29" edge="1">
          <mxGeometry relative="1" as="geometry">
            <Array as="points">
              <mxPoint x="430" y="240" />
              <mxPoint x="630" y="240" />
            </Array>
          </mxGeometry>
        </mxCell>
        <mxCell id="iQWYw39QzCIdHBORsN6B-33" style="edgeStyle=orthogonalEdgeStyle;rounded=0;orthogonalLoop=1;jettySize=auto;html=1;endArrow=none;endFill=0;fontSize=12;fontStyle=1" parent="1" source="iQWYw39QzCIdHBORsN6B-1" target="iQWYw39QzCIdHBORsN6B-32" edge="1">
          <mxGeometry relative="1" as="geometry">
            <Array as="points">
              <mxPoint x="430" y="240" />
              <mxPoint x="760" y="240" />
            </Array>
          </mxGeometry>
        </mxCell>
        <mxCell id="iQWYw39QzCIdHBORsN6B-135" style="edgeStyle=orthogonalEdgeStyle;rounded=0;jumpStyle=arc;orthogonalLoop=1;jettySize=auto;html=1;strokeColor=#000000;strokeWidth=1;fontSize=12;fontColor=#000000;endArrow=none;endFill=0;fontStyle=1" parent="1" source="iQWYw39QzCIdHBORsN6B-1" target="iQWYw39QzCIdHBORsN6B-93" edge="1">
          <mxGeometry relative="1" as="geometry">
            <Array as="points">
              <mxPoint x="420" y="420" />
              <mxPoint x="420" y="420" />
            </Array>
          </mxGeometry>
        </mxCell>
        <mxCell id="iQWYw39QzCIdHBORsN6B-1" value="User Agent&lt;br style=&quot;font-size: 12px;&quot;&gt;WebClient&lt;br style=&quot;font-size: 12px;&quot;&gt;(React SPA / Router / TS)" style="rounded=1;whiteSpace=wrap;html=1;fontSize=12;fontStyle=1;fillColor=#dae8fc;strokeColor=#6c8ebf;" parent="1" vertex="1">
          <mxGeometry x="360" y="330" width="120" height="60" as="geometry" />
        </mxCell>
        <mxCell id="iQWYw39QzCIdHBORsN6B-8" value="/" style="edgeStyle=orthogonalEdgeStyle;rounded=0;orthogonalLoop=1;jettySize=auto;html=1;endArrow=none;endFill=0;fontSize=12;fontStyle=1" parent="1" source="iQWYw39QzCIdHBORsN6B-2" target="iQWYw39QzCIdHBORsN6B-6" edge="1">
          <mxGeometry relative="1" as="geometry">
            <Array as="points">
              <mxPoint x="740" y="580" />
              <mxPoint x="740" y="580" />
            </Array>
          </mxGeometry>
        </mxCell>
        <mxCell id="iQWYw39QzCIdHBORsN6B-9" value="/api" style="edgeStyle=orthogonalEdgeStyle;rounded=0;orthogonalLoop=1;jettySize=auto;html=1;endArrow=none;endFill=0;fontSize=12;fontStyle=1" parent="1" source="iQWYw39QzCIdHBORsN6B-2" target="iQWYw39QzCIdHBORsN6B-5" edge="1">
          <mxGeometry relative="1" as="geometry">
            <Array as="points">
              <mxPoint x="800" y="580" />
              <mxPoint x="800" y="580" />
            </Array>
          </mxGeometry>
        </mxCell>
        <mxCell id="iQWYw39QzCIdHBORsN6B-2" value="Reverse proxy&lt;br style=&quot;font-size: 12px;&quot;&gt;NGINX" style="rounded=1;whiteSpace=wrap;html=1;fontSize=12;fontStyle=1;fillColor=#dae8fc;strokeColor=#6c8ebf;gradientColor=#FFCE9F;gradientDirection=east;" parent="1" vertex="1">
          <mxGeometry x="710" y="490" width="120" height="60" as="geometry" />
        </mxCell>
        <mxCell id="iQWYw39QzCIdHBORsN6B-25" style="edgeStyle=orthogonalEdgeStyle;rounded=0;orthogonalLoop=1;jettySize=auto;html=1;endArrow=none;endFill=0;fontSize=12;fontStyle=1" parent="1" source="iQWYw39QzCIdHBORsN6B-3" target="iQWYw39QzCIdHBORsN6B-1" edge="1">
          <mxGeometry relative="1" as="geometry">
            <Array as="points">
              <mxPoint x="410" y="190" />
            </Array>
          </mxGeometry>
        </mxCell>
        <mxCell id="iQWYw39QzCIdHBORsN6B-3" value="Bénéficiaire" style="shape=umlActor;verticalLabelPosition=middle;verticalAlign=middle;html=1;outlineConnect=0;labelPosition=left;align=right;fontSize=12;fontStyle=1" parent="1" vertex="1">
          <mxGeometry x="140" y="150" width="30" height="60" as="geometry" />
        </mxCell>
        <mxCell id="iQWYw39QzCIdHBORsN6B-26" style="edgeStyle=orthogonalEdgeStyle;rounded=0;orthogonalLoop=1;jettySize=auto;html=1;endArrow=none;endFill=0;startArrow=none;fontSize=12;fontStyle=1" parent="1" source="iQWYw39QzCIdHBORsN6B-4" target="iQWYw39QzCIdHBORsN6B-1" edge="1">
          <mxGeometry relative="1" as="geometry">
            <Array as="points">
              <mxPoint x="410" y="290" />
            </Array>
          </mxGeometry>
        </mxCell>
        <mxCell id="iQWYw39QzCIdHBORsN6B-4" value="Entreprise" style="shape=umlActor;verticalLabelPosition=middle;verticalAlign=middle;html=1;outlineConnect=0;labelPosition=left;align=right;fontSize=12;fontStyle=1" parent="1" vertex="1">
          <mxGeometry x="140" y="250" width="30" height="60" as="geometry" />
        </mxCell>
        <mxCell id="iQWYw39QzCIdHBORsN6B-13" style="edgeStyle=orthogonalEdgeStyle;rounded=0;orthogonalLoop=1;jettySize=auto;html=1;endArrow=none;endFill=0;fontSize=12;fontStyle=1" parent="1" source="iQWYw39QzCIdHBORsN6B-19" target="iQWYw39QzCIdHBORsN6B-10" edge="1">
          <mxGeometry relative="1" as="geometry">
            <Array as="points">
              <mxPoint x="1270" y="480" />
              <mxPoint x="1270" y="480" />
            </Array>
          </mxGeometry>
        </mxCell>
        <mxCell id="iQWYw39QzCIdHBORsN6B-15" style="edgeStyle=orthogonalEdgeStyle;rounded=0;orthogonalLoop=1;jettySize=auto;html=1;endArrow=none;endFill=0;fontSize=12;fontStyle=1" parent="1" source="iQWYw39QzCIdHBORsN6B-19" target="iQWYw39QzCIdHBORsN6B-14" edge="1">
          <mxGeometry relative="1" as="geometry">
            <Array as="points">
              <mxPoint x="1130" y="480" />
              <mxPoint x="1130" y="550" />
            </Array>
          </mxGeometry>
        </mxCell>
        <mxCell id="iQWYw39QzCIdHBORsN6B-20" style="edgeStyle=orthogonalEdgeStyle;rounded=0;orthogonalLoop=1;jettySize=auto;html=1;endArrow=none;endFill=0;fontSize=12;fontStyle=1" parent="1" source="iQWYw39QzCIdHBORsN6B-5" target="iQWYw39QzCIdHBORsN6B-19" edge="1">
          <mxGeometry relative="1" as="geometry">
            <Array as="points">
              <mxPoint x="940" y="650" />
              <mxPoint x="940" y="650" />
            </Array>
          </mxGeometry>
        </mxCell>
        <mxCell id="iQWYw39QzCIdHBORsN6B-5" value="API Webserver&lt;br style=&quot;font-size: 12px;&quot;&gt;(Express)" style="rounded=1;whiteSpace=wrap;html=1;fontSize=12;fontStyle=1;fillColor=#ffe6cc;strokeColor=#d79b00;" parent="1" vertex="1">
          <mxGeometry x="780" y="620" width="120" height="60" as="geometry" />
        </mxCell>
        <mxCell id="iQWYw39QzCIdHBORsN6B-6" value="Front Build Static&lt;br style=&quot;font-size: 12px;&quot;&gt;(Vite)" style="rounded=1;whiteSpace=wrap;html=1;fontSize=12;fontStyle=1;fillColor=#dae8fc;strokeColor=#6c8ebf;" parent="1" vertex="1">
          <mxGeometry x="640" y="620" width="120" height="60" as="geometry" />
        </mxCell>
        <mxCell id="iQWYw39QzCIdHBORsN6B-12" style="edgeStyle=orthogonalEdgeStyle;rounded=0;orthogonalLoop=1;jettySize=auto;html=1;endArrow=none;endFill=0;fontSize=12;fontStyle=1" parent="1" source="iQWYw39QzCIdHBORsN6B-10" target="iQWYw39QzCIdHBORsN6B-11" edge="1">
          <mxGeometry relative="1" as="geometry" />
        </mxCell>
        <mxCell id="iQWYw39QzCIdHBORsN6B-10" value="Pole Emploi dont PeConnect&lt;br style=&quot;font-size: 12px;&quot;&gt;(REST)" style="rounded=1;whiteSpace=wrap;html=1;fontSize=12;fontStyle=1;fillColor=#ffe6cc;strokeColor=#d79b00;" parent="1" vertex="1">
          <mxGeometry x="1280" y="450" width="120" height="60" as="geometry" />
        </mxCell>
        <mxCell id="iQWYw39QzCIdHBORsN6B-11" value="La bonne boite&lt;br style=&quot;font-size: 12px;&quot;&gt;(REST)" style="rounded=1;whiteSpace=wrap;html=1;fontSize=12;fontStyle=1;fillColor=#ffe6cc;strokeColor=#d79b00;" parent="1" vertex="1">
          <mxGeometry x="1430" y="450" width="120" height="60" as="geometry" />
        </mxCell>
        <mxCell id="iQWYw39QzCIdHBORsN6B-14" value="OpenCageData&lt;br style=&quot;font-size: 12px;&quot;&gt;geo&lt;br style=&quot;font-size: 12px;&quot;&gt;(REST)" style="rounded=1;whiteSpace=wrap;html=1;fontSize=12;fontStyle=1;fillColor=#ffe6cc;strokeColor=#d79b00;" parent="1" vertex="1">
          <mxGeometry x="1140" y="520" width="120" height="60" as="geometry" />
        </mxCell>
        <mxCell id="iQWYw39QzCIdHBORsN6B-16" value="Brevo&lt;br style=&quot;font-size: 12px;&quot;&gt;mails + SMS&lt;br style=&quot;font-size: 12px;&quot;&gt;(REST)" style="rounded=1;whiteSpace=wrap;html=1;fontSize=12;fontStyle=1;fillColor=#ffe6cc;strokeColor=#d79b00;" parent="1" vertex="1">
          <mxGeometry x="1140" y="590" width="120" height="60" as="geometry" />
        </mxCell>
        <mxCell id="iQWYw39QzCIdHBORsN6B-45" style="edgeStyle=orthogonalEdgeStyle;rounded=0;orthogonalLoop=1;jettySize=auto;html=1;endArrow=none;endFill=0;fontSize=12;fontStyle=1" parent="1" source="iQWYw39QzCIdHBORsN6B-17" target="iQWYw39QzCIdHBORsN6B-18" edge="1">
          <mxGeometry relative="1" as="geometry" />
        </mxCell>
        <mxCell id="iQWYw39QzCIdHBORsN6B-17" value="Scalingo cron" style="rounded=1;whiteSpace=wrap;html=1;fontSize=12;fontStyle=1;fillColor=#f8cecc;strokeColor=#b85450;" parent="1" vertex="1">
          <mxGeometry x="840" y="720" width="120" height="60" as="geometry" />
        </mxCell>
        <mxCell id="iQWYw39QzCIdHBORsN6B-21" style="edgeStyle=orthogonalEdgeStyle;rounded=0;orthogonalLoop=1;jettySize=auto;html=1;endArrow=none;endFill=0;fontSize=12;fontStyle=1" parent="1" source="iQWYw39QzCIdHBORsN6B-18" target="iQWYw39QzCIdHBORsN6B-19" edge="1">
          <mxGeometry relative="1" as="geometry">
            <Array as="points">
              <mxPoint x="1030" y="750" />
            </Array>
          </mxGeometry>
        </mxCell>
        <mxCell id="iQWYw39QzCIdHBORsN6B-18" value="Scripts&lt;br style=&quot;font-size: 12px;&quot;&gt;(TS)" style="rounded=1;whiteSpace=wrap;html=1;fontSize=12;fontStyle=1;fillColor=#ffe6cc;strokeColor=#d79b00;" parent="1" vertex="1">
          <mxGeometry x="970" y="720" width="120" height="60" as="geometry" />
        </mxCell>
        <mxCell id="iQWYw39QzCIdHBORsN6B-22" style="edgeStyle=orthogonalEdgeStyle;rounded=0;orthogonalLoop=1;jettySize=auto;html=1;endArrow=none;endFill=0;fontSize=12;fontStyle=1" parent="1" source="iQWYw39QzCIdHBORsN6B-19" target="iQWYw39QzCIdHBORsN6B-16" edge="1">
          <mxGeometry relative="1" as="geometry">
            <Array as="points">
              <mxPoint x="1130" y="480" />
              <mxPoint x="1130" y="620" />
            </Array>
          </mxGeometry>
        </mxCell>
        <mxCell id="iQWYw39QzCIdHBORsN6B-36" style="edgeStyle=orthogonalEdgeStyle;rounded=0;orthogonalLoop=1;jettySize=auto;html=1;endArrow=none;endFill=0;fontSize=12;fontStyle=1" parent="1" source="iQWYw39QzCIdHBORsN6B-19" target="iQWYw39QzCIdHBORsN6B-35" edge="1">
          <mxGeometry relative="1" as="geometry">
            <Array as="points">
              <mxPoint x="1270" y="480" />
              <mxPoint x="1270" y="550" />
            </Array>
          </mxGeometry>
        </mxCell>
        <mxCell id="iQWYw39QzCIdHBORsN6B-44" value="RW" style="edgeStyle=orthogonalEdgeStyle;rounded=0;orthogonalLoop=1;jettySize=auto;html=1;endArrow=none;endFill=0;fontSize=12;fontStyle=1" parent="1" source="iQWYw39QzCIdHBORsN6B-19" target="iQWYw39QzCIdHBORsN6B-43" edge="1">
          <mxGeometry relative="1" as="geometry">
            <Array as="points">
              <mxPoint x="1030" y="400" />
              <mxPoint x="1030" y="400" />
            </Array>
          </mxGeometry>
        </mxCell>
        <mxCell id="iQWYw39QzCIdHBORsN6B-50" style="edgeStyle=orthogonalEdgeStyle;rounded=0;orthogonalLoop=1;jettySize=auto;html=1;endArrow=none;endFill=0;fontSize=12;fontStyle=1" parent="1" source="iQWYw39QzCIdHBORsN6B-19" target="iQWYw39QzCIdHBORsN6B-49" edge="1">
          <mxGeometry relative="1" as="geometry">
            <Array as="points">
              <mxPoint x="1130" y="480" />
              <mxPoint x="1130" y="690" />
            </Array>
          </mxGeometry>
        </mxCell>
        <mxCell id="iQWYw39QzCIdHBORsN6B-87" style="edgeStyle=orthogonalEdgeStyle;rounded=0;jumpStyle=arc;orthogonalLoop=1;jettySize=auto;html=1;strokeColor=#000000;strokeWidth=1;fontSize=12;fontColor=#7F00FF;endArrow=none;endFill=0;fontStyle=1" parent="1" source="iQWYw39QzCIdHBORsN6B-19" target="iQWYw39QzCIdHBORsN6B-85" edge="1">
          <mxGeometry relative="1" as="geometry">
            <Array as="points">
              <mxPoint x="1270" y="480" />
              <mxPoint x="1270" y="620" />
            </Array>
          </mxGeometry>
        </mxCell>
        <mxCell id="iQWYw39QzCIdHBORsN6B-115" style="edgeStyle=orthogonalEdgeStyle;rounded=0;jumpStyle=arc;orthogonalLoop=1;jettySize=auto;html=1;strokeColor=#000000;strokeWidth=1;fontSize=12;fontColor=#7F00FF;endArrow=none;endFill=0;fontStyle=1" parent="1" source="iQWYw39QzCIdHBORsN6B-19" target="iQWYw39QzCIdHBORsN6B-84" edge="1">
          <mxGeometry relative="1" as="geometry">
            <Array as="points">
              <mxPoint x="1130" y="480" />
              <mxPoint x="1130" y="760" />
            </Array>
          </mxGeometry>
        </mxCell>
        <mxCell id="iQWYw39QzCIdHBORsN6B-120" style="edgeStyle=orthogonalEdgeStyle;rounded=0;jumpStyle=arc;orthogonalLoop=1;jettySize=auto;html=1;strokeColor=#000000;strokeWidth=1;fontSize=12;fontColor=#7F00FF;endArrow=none;endFill=0;fontStyle=1" parent="1" source="iQWYw39QzCIdHBORsN6B-19" target="iQWYw39QzCIdHBORsN6B-118" edge="1">
          <mxGeometry relative="1" as="geometry">
            <Array as="points">
              <mxPoint x="1130" y="480" />
              <mxPoint x="1130" y="830" />
            </Array>
          </mxGeometry>
        </mxCell>
        <mxCell id="iQWYw39QzCIdHBORsN6B-122" style="edgeStyle=orthogonalEdgeStyle;rounded=0;jumpStyle=arc;orthogonalLoop=1;jettySize=auto;html=1;strokeColor=#000000;strokeWidth=1;fontSize=12;fontColor=#7F00FF;endArrow=none;endFill=0;fontStyle=1" parent="1" source="iQWYw39QzCIdHBORsN6B-19" target="iQWYw39QzCIdHBORsN6B-121" edge="1">
          <mxGeometry relative="1" as="geometry">
            <Array as="points">
              <mxPoint x="1270" y="480" />
              <mxPoint x="1270" y="690" />
            </Array>
          </mxGeometry>
        </mxCell>
        <mxCell id="iQWYw39QzCIdHBORsN6B-124" style="edgeStyle=orthogonalEdgeStyle;rounded=0;jumpStyle=arc;orthogonalLoop=1;jettySize=auto;html=1;strokeColor=#000000;strokeWidth=1;fontSize=12;fontColor=#7F00FF;endArrow=none;endFill=0;fontStyle=1" parent="1" source="iQWYw39QzCIdHBORsN6B-19" target="iQWYw39QzCIdHBORsN6B-123" edge="1">
          <mxGeometry relative="1" as="geometry">
            <Array as="points">
              <mxPoint x="1270" y="480" />
              <mxPoint x="1270" y="760" />
            </Array>
          </mxGeometry>
        </mxCell>
        <mxCell id="iQWYw39QzCIdHBORsN6B-19" value="Back Logic&lt;br style=&quot;font-size: 12px;&quot;&gt;(TS)" style="rounded=1;whiteSpace=wrap;html=1;fontSize=12;fontStyle=1;fillColor=#ffe6cc;strokeColor=#d79b00;" parent="1" vertex="1">
          <mxGeometry x="970" y="440" width="120" height="260" as="geometry" />
        </mxCell>
        <mxCell id="iQWYw39QzCIdHBORsN6B-24" style="edgeStyle=orthogonalEdgeStyle;rounded=0;orthogonalLoop=1;jettySize=auto;html=1;endArrow=none;endFill=0;fontSize=12;fontStyle=1" parent="1" source="iQWYw39QzCIdHBORsN6B-23" target="iQWYw39QzCIdHBORsN6B-1" edge="1">
          <mxGeometry relative="1" as="geometry">
            <Array as="points">
              <mxPoint x="420" y="140" />
            </Array>
          </mxGeometry>
        </mxCell>
        <mxCell id="iQWYw39QzCIdHBORsN6B-39" style="edgeStyle=orthogonalEdgeStyle;rounded=0;orthogonalLoop=1;jettySize=auto;html=1;endArrow=none;endFill=0;fontSize=12;fontStyle=1" parent="1" source="iQWYw39QzCIdHBORsN6B-23" target="iQWYw39QzCIdHBORsN6B-28" edge="1">
          <mxGeometry relative="1" as="geometry">
            <Array as="points">
              <mxPoint x="500" y="140" />
            </Array>
          </mxGeometry>
        </mxCell>
        <mxCell id="iQWYw39QzCIdHBORsN6B-40" style="edgeStyle=orthogonalEdgeStyle;rounded=0;orthogonalLoop=1;jettySize=auto;html=1;endArrow=none;endFill=0;fontSize=12;fontStyle=1" parent="1" source="iQWYw39QzCIdHBORsN6B-23" target="iQWYw39QzCIdHBORsN6B-29" edge="1">
          <mxGeometry relative="1" as="geometry">
            <Array as="points">
              <mxPoint x="630" y="140" />
            </Array>
          </mxGeometry>
        </mxCell>
        <mxCell id="iQWYw39QzCIdHBORsN6B-41" style="edgeStyle=orthogonalEdgeStyle;rounded=0;orthogonalLoop=1;jettySize=auto;html=1;endArrow=none;endFill=0;fontSize=12;fontStyle=1" parent="1" source="iQWYw39QzCIdHBORsN6B-23" target="iQWYw39QzCIdHBORsN6B-32" edge="1">
          <mxGeometry relative="1" as="geometry">
            <Array as="points">
              <mxPoint x="760" y="140" />
            </Array>
          </mxGeometry>
        </mxCell>
        <mxCell id="iQWYw39QzCIdHBORsN6B-42" style="edgeStyle=orthogonalEdgeStyle;rounded=0;orthogonalLoop=1;jettySize=auto;html=1;endArrow=none;endFill=0;fontSize=12;fontStyle=1" parent="1" source="iQWYw39QzCIdHBORsN6B-23" target="iQWYw39QzCIdHBORsN6B-37" edge="1">
          <mxGeometry relative="1" as="geometry">
            <Array as="points">
              <mxPoint x="1210" y="140" />
            </Array>
          </mxGeometry>
        </mxCell>
        <mxCell id="iQWYw39QzCIdHBORsN6B-54" style="edgeStyle=orthogonalEdgeStyle;rounded=0;orthogonalLoop=1;jettySize=auto;html=1;endArrow=none;endFill=0;fontSize=12;fontStyle=1" parent="1" source="iQWYw39QzCIdHBORsN6B-23" target="iQWYw39QzCIdHBORsN6B-34" edge="1">
          <mxGeometry relative="1" as="geometry">
            <Array as="points">
              <mxPoint x="900" y="140" />
            </Array>
          </mxGeometry>
        </mxCell>
        <mxCell id="iQWYw39QzCIdHBORsN6B-55" style="edgeStyle=orthogonalEdgeStyle;rounded=0;orthogonalLoop=1;jettySize=auto;html=1;endArrow=none;endFill=0;fontSize=12;fontStyle=1" parent="1" source="iQWYw39QzCIdHBORsN6B-23" target="iQWYw39QzCIdHBORsN6B-47" edge="1">
          <mxGeometry relative="1" as="geometry">
            <Array as="points">
              <mxPoint x="1030" y="140" />
            </Array>
          </mxGeometry>
        </mxCell>
        <mxCell id="iQWYw39QzCIdHBORsN6B-139" style="edgeStyle=orthogonalEdgeStyle;rounded=0;jumpStyle=arc;orthogonalLoop=1;jettySize=auto;html=1;strokeColor=#000000;strokeWidth=1;fontSize=12;fontColor=#000000;endArrow=none;endFill=0;fontStyle=1" parent="1" source="iQWYw39QzCIdHBORsN6B-23" target="iQWYw39QzCIdHBORsN6B-61" edge="1">
          <mxGeometry relative="1" as="geometry">
            <Array as="points">
              <mxPoint x="1590" y="140" />
            </Array>
          </mxGeometry>
        </mxCell>
        <mxCell id="iQWYw39QzCIdHBORsN6B-23" value="Admin&lt;br style=&quot;font-size: 12px;&quot;&gt;Immersion Facilitée" style="shape=umlActor;verticalLabelPosition=middle;verticalAlign=middle;html=1;outlineConnect=0;labelPosition=left;align=right;fontSize=12;fontStyle=1" parent="1" vertex="1">
          <mxGeometry x="180" y="100" width="30" height="60" as="geometry" />
        </mxCell>
        <mxCell id="iQWYw39QzCIdHBORsN6B-59" style="edgeStyle=orthogonalEdgeStyle;rounded=0;orthogonalLoop=1;jettySize=auto;html=1;endArrow=none;endFill=0;fontSize=12;fontStyle=1" parent="1" source="iQWYw39QzCIdHBORsN6B-27" target="iQWYw39QzCIdHBORsN6B-1" edge="1">
          <mxGeometry relative="1" as="geometry">
            <Array as="points">
              <mxPoint x="410" y="240" />
            </Array>
          </mxGeometry>
        </mxCell>
        <mxCell id="iQWYw39QzCIdHBORsN6B-28" value="Crisp&lt;br style=&quot;font-size: 12px;&quot;&gt;support + mediateque" style="rounded=1;whiteSpace=wrap;html=1;fontSize=12;fontStyle=1;fillColor=#d5e8d4;strokeColor=#82b366;gradientDirection=west;gradientColor=#A9C4EB;" parent="1" vertex="1">
          <mxGeometry x="440" y="160" width="120" height="60" as="geometry" />
        </mxCell>
        <mxCell id="iQWYw39QzCIdHBORsN6B-29" value="Matomo&lt;br style=&quot;font-size: 12px;&quot;&gt;tracking" style="rounded=1;whiteSpace=wrap;html=1;fontSize=12;fontStyle=1;fillColor=#d5e8d4;strokeColor=#82b366;gradientDirection=west;gradientColor=#A9C4EB;" parent="1" vertex="1">
          <mxGeometry x="570" y="160" width="120" height="60" as="geometry" />
        </mxCell>
        <mxCell id="iQWYw39QzCIdHBORsN6B-32" value="Sentry&lt;br style=&quot;font-size: 12px;&quot;&gt;tracking" style="rounded=1;whiteSpace=wrap;html=1;fontSize=12;fontStyle=1;fillColor=#d5e8d4;strokeColor=#82b366;gradientDirection=west;gradientColor=#A9C4EB;" parent="1" vertex="1">
          <mxGeometry x="700" y="160" width="120" height="60" as="geometry" />
        </mxCell>
        <mxCell id="iQWYw39QzCIdHBORsN6B-46" value="R" style="edgeStyle=orthogonalEdgeStyle;rounded=0;orthogonalLoop=1;jettySize=auto;html=1;endArrow=none;endFill=0;fontSize=12;fontStyle=1" parent="1" source="iQWYw39QzCIdHBORsN6B-34" target="iQWYw39QzCIdHBORsN6B-43" edge="1">
          <mxGeometry relative="1" as="geometry">
            <Array as="points">
              <mxPoint x="900" y="240" />
              <mxPoint x="1020" y="240" />
            </Array>
          </mxGeometry>
        </mxCell>
        <mxCell id="iQWYw39QzCIdHBORsN6B-52" value="RW" style="edgeStyle=orthogonalEdgeStyle;rounded=0;orthogonalLoop=1;jettySize=auto;html=1;endArrow=none;endFill=0;fontSize=12;fontStyle=1" parent="1" source="iQWYw39QzCIdHBORsN6B-34" target="iQWYw39QzCIdHBORsN6B-51" edge="1">
          <mxGeometry relative="1" as="geometry">
            <Array as="points">
              <mxPoint x="880" y="240" />
              <mxPoint x="880" y="240" />
            </Array>
          </mxGeometry>
        </mxCell>
        <mxCell id="iQWYw39QzCIdHBORsN6B-53" style="edgeStyle=orthogonalEdgeStyle;rounded=0;orthogonalLoop=1;jettySize=auto;html=1;endArrow=none;endFill=0;fontSize=12;fontStyle=1" parent="1" source="iQWYw39QzCIdHBORsN6B-34" target="iQWYw39QzCIdHBORsN6B-1" edge="1">
          <mxGeometry relative="1" as="geometry">
            <Array as="points">
              <mxPoint x="860" y="240" />
              <mxPoint x="430" y="240" />
            </Array>
          </mxGeometry>
        </mxCell>
        <mxCell id="iQWYw39QzCIdHBORsN6B-34" value="Metabase&lt;br style=&quot;font-size: 12px;&quot;&gt;data / query dashboards" style="rounded=1;whiteSpace=wrap;html=1;fontSize=12;fontStyle=1;fillColor=#d5e8d4;strokeColor=#82b366;gradientDirection=west;gradientColor=#A9C4EB;" parent="1" vertex="1">
          <mxGeometry x="840" y="160" width="120" height="60" as="geometry" />
        </mxCell>
        <mxCell id="iQWYw39QzCIdHBORsN6B-35" value="INSEE&lt;br style=&quot;font-size: 12px;&quot;&gt;sirets&lt;br style=&quot;font-size: 12px;&quot;&gt;(REST)" style="rounded=1;whiteSpace=wrap;html=1;fontSize=12;fontStyle=1;fillColor=#ffe6cc;strokeColor=#d79b00;" parent="1" vertex="1">
          <mxGeometry x="1280" y="520" width="120" height="60" as="geometry" />
        </mxCell>
        <mxCell id="iQWYw39QzCIdHBORsN6B-38" style="edgeStyle=orthogonalEdgeStyle;rounded=0;orthogonalLoop=1;jettySize=auto;html=1;endArrow=none;endFill=0;fontSize=12;fontStyle=1;exitX=0.5;exitY=1;exitDx=0;exitDy=0;" parent="1" source="iQWYw39QzCIdHBORsN6B-37" target="iQWYw39QzCIdHBORsN6B-19" edge="1">
          <mxGeometry relative="1" as="geometry">
            <Array as="points">
              <mxPoint x="1210" y="400" />
              <mxPoint x="1060" y="400" />
            </Array>
          </mxGeometry>
        </mxCell>
        <mxCell id="iQWYw39QzCIdHBORsN6B-37" value="Datadog&lt;br style=&quot;font-size: 12px;&quot;&gt;" style="rounded=1;whiteSpace=wrap;html=1;fontSize=12;fontStyle=1;fillColor=#d5e8d4;strokeColor=#82b366;" parent="1" vertex="1">
          <mxGeometry x="1150" y="160" width="120" height="60" as="geometry" />
        </mxCell>
        <mxCell id="OQy9jzIz-Btu5Pu-kquY-1" style="edgeStyle=orthogonalEdgeStyle;rounded=0;orthogonalLoop=1;jettySize=auto;html=1;exitX=0.855;exitY=0;exitDx=0;exitDy=4.35;exitPerimeter=0;entryX=0.5;entryY=1;entryDx=0;entryDy=0;" edge="1" parent="1" source="iQWYw39QzCIdHBORsN6B-43" target="iQWYw39QzCIdHBORsN6B-37">
          <mxGeometry relative="1" as="geometry" />
        </mxCell>
        <mxCell id="iQWYw39QzCIdHBORsN6B-43" value="Postgres" style="shape=cylinder3;whiteSpace=wrap;html=1;boundedLbl=1;backgroundOutline=1;size=15;fontSize=12;fontStyle=1;fillColor=#ffe6cc;strokeColor=#d79b00;" parent="1" vertex="1">
          <mxGeometry x="1000" y="310" width="60" height="80" as="geometry" />
        </mxCell>
        <mxCell id="iQWYw39QzCIdHBORsN6B-48" style="edgeStyle=orthogonalEdgeStyle;rounded=0;orthogonalLoop=1;jettySize=auto;html=1;endArrow=none;endFill=0;fontSize=12;fontStyle=1" parent="1" source="iQWYw39QzCIdHBORsN6B-47" target="iQWYw39QzCIdHBORsN6B-43" edge="1">
          <mxGeometry relative="1" as="geometry">
            <Array as="points">
              <mxPoint x="1030" y="290" />
            </Array>
          </mxGeometry>
        </mxCell>
        <mxCell id="iQWYw39QzCIdHBORsN6B-47" value="Adminer&lt;br&gt;DB admin" style="rounded=1;whiteSpace=wrap;html=1;fontSize=12;fontStyle=1;fillColor=#d5e8d4;strokeColor=#82b366;" parent="1" vertex="1">
          <mxGeometry x="970" y="160" width="120" height="60" as="geometry" />
        </mxCell>
        <mxCell id="iQWYw39QzCIdHBORsN6B-49" value="Slack&lt;br style=&quot;font-size: 12px;&quot;&gt;notifs alerting" style="rounded=1;whiteSpace=wrap;html=1;fontSize=12;fontStyle=1;fillColor=#ffe6cc;strokeColor=#d79b00;" parent="1" vertex="1">
          <mxGeometry x="1140" y="660" width="120" height="60" as="geometry" />
        </mxCell>
        <mxCell id="iQWYw39QzCIdHBORsN6B-51" value="Postgres" style="shape=cylinder3;whiteSpace=wrap;html=1;boundedLbl=1;backgroundOutline=1;size=15;fontSize=12;fontStyle=1;fillColor=#d5e8d4;strokeColor=#82b366;gradientDirection=east;gradientColor=#A9C4EB;" parent="1" vertex="1">
          <mxGeometry x="850" y="310" width="60" height="80" as="geometry" />
        </mxCell>
        <mxCell id="iQWYw39QzCIdHBORsN6B-57" style="edgeStyle=orthogonalEdgeStyle;rounded=0;orthogonalLoop=1;jettySize=auto;html=1;endArrow=none;endFill=0;jumpStyle=arc;fontSize=12;fontStyle=1" parent="1" source="iQWYw39QzCIdHBORsN6B-154" target="iQWYw39QzCIdHBORsN6B-5" edge="1">
          <mxGeometry relative="1" as="geometry">
            <mxPoint x="800" y="720" as="sourcePoint" />
            <Array as="points">
              <mxPoint x="780" y="700" />
              <mxPoint x="840" y="700" />
            </Array>
          </mxGeometry>
        </mxCell>
        <mxCell id="iQWYw39QzCIdHBORsN6B-58" style="edgeStyle=orthogonalEdgeStyle;rounded=0;orthogonalLoop=1;jettySize=auto;html=1;endArrow=none;endFill=0;jumpStyle=arc;fontSize=12;fontStyle=1" parent="1" source="iQWYw39QzCIdHBORsN6B-154" target="iQWYw39QzCIdHBORsN6B-6" edge="1">
          <mxGeometry relative="1" as="geometry">
            <mxPoint x="740" y="720" as="sourcePoint" />
            <Array as="points">
              <mxPoint x="760" y="700" />
              <mxPoint x="700" y="700" />
            </Array>
          </mxGeometry>
        </mxCell>
        <mxCell id="iQWYw39QzCIdHBORsN6B-62" style="edgeStyle=orthogonalEdgeStyle;rounded=0;orthogonalLoop=1;jettySize=auto;html=1;endArrow=none;endFill=0;fontSize=12;fontStyle=1" parent="1" source="iQWYw39QzCIdHBORsN6B-60" target="iQWYw39QzCIdHBORsN6B-61" edge="1">
          <mxGeometry relative="1" as="geometry">
            <Array as="points">
              <mxPoint x="1520" y="190" />
              <mxPoint x="1520" y="190" />
            </Array>
          </mxGeometry>
        </mxCell>
        <mxCell id="iQWYw39QzCIdHBORsN6B-130" style="edgeStyle=orthogonalEdgeStyle;rounded=0;jumpStyle=arc;orthogonalLoop=1;jettySize=auto;html=1;strokeColor=#000000;strokeWidth=1;fontSize=12;fontColor=#000000;endArrow=none;endFill=0;fontStyle=1" parent="1" source="iQWYw39QzCIdHBORsN6B-60" target="iQWYw39QzCIdHBORsN6B-17" edge="1">
          <mxGeometry relative="1" as="geometry">
            <Array as="points">
              <mxPoint x="1500" y="230" />
              <mxPoint x="1560" y="230" />
              <mxPoint x="1560" y="930" />
              <mxPoint x="890" y="930" />
            </Array>
          </mxGeometry>
        </mxCell>
        <mxCell id="iQWYw39QzCIdHBORsN6B-60" value="GitHub&lt;br style=&quot;font-size: 12px;&quot;&gt;code repository" style="rounded=1;whiteSpace=wrap;html=1;fontSize=12;fontStyle=1;fillColor=#d5e8d4;strokeColor=#82b366;" parent="1" vertex="1">
          <mxGeometry x="1390" y="160" width="120" height="60" as="geometry" />
        </mxCell>
        <mxCell id="iQWYw39QzCIdHBORsN6B-63" style="edgeStyle=orthogonalEdgeStyle;rounded=0;orthogonalLoop=1;jettySize=auto;html=1;endArrow=none;endFill=0;fontSize=12;fontStyle=1" parent="1" source="iQWYw39QzCIdHBORsN6B-61" target="iQWYw39QzCIdHBORsN6B-154" edge="1">
          <mxGeometry relative="1" as="geometry">
            <mxPoint x="770" y="780" as="targetPoint" />
            <Array as="points">
              <mxPoint x="1570" y="940" />
              <mxPoint x="770" y="940" />
            </Array>
          </mxGeometry>
        </mxCell>
        <mxCell id="iQWYw39QzCIdHBORsN6B-61" value="GitHub Actions&lt;br style=&quot;font-size: 12px;&quot;&gt;CICD" style="rounded=1;whiteSpace=wrap;html=1;fontSize=12;fontStyle=1;fillColor=#d5e8d4;strokeColor=#82b366;gradientDirection=east;gradientColor=#FF9999;" parent="1" vertex="1">
          <mxGeometry x="1530" y="160" width="120" height="60" as="geometry" />
        </mxCell>
        <mxCell id="iQWYw39QzCIdHBORsN6B-68" value="" style="endArrow=none;dashed=1;html=1;rounded=0;strokeWidth=2;strokeColor=#7F00FF;fontColor=#7F00FF;fontSize=12;fontStyle=1" parent="1" edge="1">
          <mxGeometry width="50" height="50" relative="1" as="geometry">
            <mxPoint x="600" y="890" as="sourcePoint" />
            <mxPoint x="1107" y="889.13" as="targetPoint" />
          </mxGeometry>
        </mxCell>
        <mxCell id="iQWYw39QzCIdHBORsN6B-69" value="" style="endArrow=none;dashed=1;html=1;rounded=0;strokeWidth=2;strokeColor=#7F00FF;fontColor=#7F00FF;startArrow=none;fontSize=12;fontStyle=1" parent="1" edge="1">
          <mxGeometry width="50" height="50" relative="1" as="geometry">
            <mxPoint x="600" y="890" as="sourcePoint" />
            <mxPoint x="600" y="330" as="targetPoint" />
          </mxGeometry>
        </mxCell>
        <mxCell id="iQWYw39QzCIdHBORsN6B-70" value="" style="endArrow=none;dashed=1;html=1;rounded=0;strokeWidth=2;strokeColor=#7F00FF;fontColor=#7F00FF;fontSize=12;fontStyle=1" parent="1" edge="1">
          <mxGeometry width="50" height="50" relative="1" as="geometry">
            <mxPoint x="600" y="330" as="sourcePoint" />
            <mxPoint x="830" y="330" as="targetPoint" />
          </mxGeometry>
        </mxCell>
        <mxCell id="iQWYw39QzCIdHBORsN6B-73" value="" style="endArrow=none;dashed=1;html=1;rounded=0;strokeWidth=2;strokeColor=#7F00FF;fontColor=#7F00FF;fontSize=12;fontStyle=1" parent="1" edge="1">
          <mxGeometry width="50" height="50" relative="1" as="geometry">
            <mxPoint x="829.71" y="330" as="sourcePoint" />
            <mxPoint x="829.71" y="150" as="targetPoint" />
          </mxGeometry>
        </mxCell>
        <mxCell id="iQWYw39QzCIdHBORsN6B-74" value="" style="endArrow=none;dashed=1;html=1;rounded=0;strokeWidth=2;strokeColor=#7F00FF;fontColor=#7F00FF;fontSize=12;fontStyle=1" parent="1" edge="1">
          <mxGeometry width="50" height="50" relative="1" as="geometry">
            <mxPoint x="830" y="150" as="sourcePoint" />
            <mxPoint x="1110" y="150" as="targetPoint" />
          </mxGeometry>
        </mxCell>
        <mxCell id="iQWYw39QzCIdHBORsN6B-75" value="" style="endArrow=none;dashed=1;html=1;rounded=0;strokeWidth=2;strokeColor=#7F00FF;fontColor=#7F00FF;fontSize=12;fontStyle=1" parent="1" edge="1">
          <mxGeometry width="50" height="50" relative="1" as="geometry">
            <mxPoint x="1110" y="150" as="sourcePoint" />
            <mxPoint x="1110" y="420" as="targetPoint" />
          </mxGeometry>
        </mxCell>
        <mxCell id="iQWYw39QzCIdHBORsN6B-77" value="" style="endArrow=none;dashed=1;html=1;rounded=0;strokeWidth=2;strokeColor=#7F00FF;fontColor=#7F00FF;fontSize=12;fontStyle=1;entryX=1;entryY=1;entryDx=0;entryDy=0;" parent="1" target="iQWYw39QzCIdHBORsN6B-78" edge="1">
          <mxGeometry width="50" height="50" relative="1" as="geometry">
            <mxPoint x="1110" y="420" as="sourcePoint" />
            <mxPoint x="1110" y="810" as="targetPoint" />
          </mxGeometry>
        </mxCell>
        <mxCell id="iQWYw39QzCIdHBORsN6B-78" value="Scalingo" style="text;html=1;strokeColor=none;fillColor=none;align=center;verticalAlign=middle;whiteSpace=wrap;rounded=0;dashed=1;dashPattern=1 1;strokeWidth=3;fontColor=#7F00FF;fontSize=12;fontStyle=1" parent="1" vertex="1">
          <mxGeometry x="990" y="860" width="117" height="30" as="geometry" />
        </mxCell>
        <mxCell id="iQWYw39QzCIdHBORsN6B-84" value="Emailable" style="rounded=1;whiteSpace=wrap;html=1;fontSize=12;fontStyle=1;fillColor=#ffe6cc;strokeColor=#d79b00;" parent="1" vertex="1">
          <mxGeometry x="1140" y="730" width="120" height="60" as="geometry" />
        </mxCell>
        <mxCell id="iQWYw39QzCIdHBORsN6B-85" value="Annuaire des entreprises" style="rounded=1;whiteSpace=wrap;html=1;fontSize=12;fontStyle=1;fillColor=#ffe6cc;strokeColor=#d79b00;" parent="1" vertex="1">
          <mxGeometry x="1280" y="590" width="120" height="60" as="geometry" />
        </mxCell>
        <mxCell id="iQWYw39QzCIdHBORsN6B-67" style="edgeStyle=orthogonalEdgeStyle;rounded=0;orthogonalLoop=1;jettySize=auto;html=1;endArrow=none;endFill=0;jumpStyle=arc;fontSize=12;fontStyle=1" parent="1" source="iQWYw39QzCIdHBORsN6B-23" target="iQWYw39QzCIdHBORsN6B-60" edge="1">
          <mxGeometry relative="1" as="geometry">
            <mxPoint x="330" y="840" as="targetPoint" />
            <Array as="points">
              <mxPoint x="1120" y="140" />
              <mxPoint x="1120" y="140" />
            </Array>
          </mxGeometry>
        </mxCell>
        <mxCell id="iQWYw39QzCIdHBORsN6B-94" style="edgeStyle=orthogonalEdgeStyle;rounded=0;jumpStyle=arc;orthogonalLoop=1;jettySize=auto;html=1;strokeColor=#000000;strokeWidth=1;fontSize=12;fontColor=#7F00FF;endArrow=none;endFill=0;fontStyle=1" parent="1" source="iQWYw39QzCIdHBORsN6B-89" target="iQWYw39QzCIdHBORsN6B-93" edge="1">
          <mxGeometry relative="1" as="geometry">
            <Array as="points">
              <mxPoint x="420" y="720" />
            </Array>
          </mxGeometry>
        </mxCell>
        <mxCell id="iQWYw39QzCIdHBORsN6B-89" value="BimBamJob" style="shape=umlActor;verticalLabelPosition=middle;verticalAlign=middle;html=1;outlineConnect=0;labelPosition=left;align=right;fontSize=12;fontStyle=1" parent="1" vertex="1">
          <mxGeometry x="180" y="680" width="30" height="60" as="geometry" />
        </mxCell>
        <mxCell id="iQWYw39QzCIdHBORsN6B-95" style="edgeStyle=orthogonalEdgeStyle;rounded=0;jumpStyle=arc;orthogonalLoop=1;jettySize=auto;html=1;strokeColor=#000000;strokeWidth=1;fontSize=12;fontColor=#7F00FF;endArrow=none;endFill=0;fontStyle=1" parent="1" source="iQWYw39QzCIdHBORsN6B-91" target="iQWYw39QzCIdHBORsN6B-93" edge="1">
          <mxGeometry relative="1" as="geometry">
            <Array as="points">
              <mxPoint x="420" y="770" />
            </Array>
          </mxGeometry>
        </mxCell>
        <mxCell id="iQWYw39QzCIdHBORsN6B-91" value="PassEmploi" style="shape=umlActor;verticalLabelPosition=middle;verticalAlign=middle;html=1;outlineConnect=0;labelPosition=left;align=right;fontSize=12;fontStyle=1" parent="1" vertex="1">
          <mxGeometry x="140" y="730" width="30" height="60" as="geometry" />
        </mxCell>
        <mxCell id="iQWYw39QzCIdHBORsN6B-129" style="edgeStyle=orthogonalEdgeStyle;rounded=0;jumpStyle=arc;orthogonalLoop=1;jettySize=auto;html=1;strokeColor=#000000;strokeWidth=1;fontSize=12;fontColor=#000000;endArrow=none;endFill=0;fontStyle=1" parent="1" source="iQWYw39QzCIdHBORsN6B-93" target="iQWYw39QzCIdHBORsN6B-2" edge="1">
          <mxGeometry relative="1" as="geometry">
            <Array as="points">
              <mxPoint x="590" y="520" />
              <mxPoint x="590" y="520" />
            </Array>
          </mxGeometry>
        </mxCell>
        <mxCell id="iQWYw39QzCIdHBORsN6B-93" value="consomateurs API&lt;br style=&quot;font-size: 12px;&quot;&gt;Immersion Facilitée" style="rounded=1;whiteSpace=wrap;html=1;fontSize=12;fontStyle=1;fillColor=#ffe6cc;strokeColor=#d79b00;" parent="1" vertex="1">
          <mxGeometry x="360" y="490" width="120" height="60" as="geometry" />
        </mxCell>
        <mxCell id="iQWYw39QzCIdHBORsN6B-101" value="page" style="edgeStyle=orthogonalEdgeStyle;rounded=0;jumpStyle=arc;orthogonalLoop=1;jettySize=auto;html=1;strokeColor=#000000;strokeWidth=1;fontSize=12;fontColor=#000000;endArrow=none;endFill=0;fontStyle=1" parent="1" source="iQWYw39QzCIdHBORsN6B-97" target="iQWYw39QzCIdHBORsN6B-104" edge="1">
          <mxGeometry relative="1" as="geometry">
            <Array as="points">
              <mxPoint x="270" y="470" />
            </Array>
          </mxGeometry>
        </mxCell>
        <mxCell id="iQWYw39QzCIdHBORsN6B-97" value="CMA" style="shape=umlActor;verticalLabelPosition=middle;verticalAlign=middle;html=1;outlineConnect=0;strokeColor=#000000;strokeWidth=1;fontColor=#000000;labelPosition=left;align=right;fontSize=12;fontStyle=1" parent="1" vertex="1">
          <mxGeometry x="140" y="430" width="30" height="60" as="geometry" />
        </mxCell>
        <mxCell id="iQWYw39QzCIdHBORsN6B-114" value="iframe" style="edgeStyle=orthogonalEdgeStyle;rounded=0;jumpStyle=arc;orthogonalLoop=1;jettySize=auto;html=1;strokeColor=#000000;strokeWidth=1;fontSize=12;fontColor=#000000;endArrow=none;endFill=0;fontStyle=1" parent="1" source="iQWYw39QzCIdHBORsN6B-98" target="iQWYw39QzCIdHBORsN6B-107" edge="1">
          <mxGeometry relative="1" as="geometry">
            <Array as="points">
              <mxPoint x="40" y="620" />
            </Array>
          </mxGeometry>
        </mxCell>
        <mxCell id="iQWYw39QzCIdHBORsN6B-98" value="Milo Paris" style="shape=umlActor;verticalLabelPosition=middle;verticalAlign=middle;html=1;outlineConnect=0;labelPosition=left;align=right;fontSize=12;fontStyle=1" parent="1" vertex="1">
          <mxGeometry x="170" y="580" width="30" height="60" as="geometry" />
        </mxCell>
        <mxCell id="iQWYw39QzCIdHBORsN6B-103" value="iframe mini stage" style="edgeStyle=orthogonalEdgeStyle;rounded=0;jumpStyle=arc;orthogonalLoop=1;jettySize=auto;html=1;strokeColor=#000000;strokeWidth=1;fontSize=12;fontColor=#000000;endArrow=none;endFill=0;fontStyle=1" parent="1" source="iQWYw39QzCIdHBORsN6B-105" target="iQWYw39QzCIdHBORsN6B-107" edge="1">
          <mxGeometry relative="1" as="geometry">
            <Array as="points">
              <mxPoint x="60" y="520" />
            </Array>
          </mxGeometry>
        </mxCell>
        <mxCell id="iQWYw39QzCIdHBORsN6B-108" value="iframe" style="edgeStyle=orthogonalEdgeStyle;rounded=0;jumpStyle=arc;orthogonalLoop=1;jettySize=auto;html=1;strokeColor=#000000;strokeWidth=1;fontSize=12;fontColor=#000000;endArrow=none;endFill=0;fontStyle=1" parent="1" source="iQWYw39QzCIdHBORsN6B-102" target="iQWYw39QzCIdHBORsN6B-107" edge="1">
          <mxGeometry relative="1" as="geometry">
            <Array as="points">
              <mxPoint x="30" y="670" />
            </Array>
          </mxGeometry>
        </mxCell>
        <mxCell id="iQWYw39QzCIdHBORsN6B-133" style="edgeStyle=orthogonalEdgeStyle;rounded=0;jumpStyle=arc;orthogonalLoop=1;jettySize=auto;html=1;strokeColor=#000000;strokeWidth=1;fontSize=12;fontColor=#000000;endArrow=none;endFill=0;fontStyle=1" parent="1" source="iQWYw39QzCIdHBORsN6B-102" target="iQWYw39QzCIdHBORsN6B-93" edge="1">
          <mxGeometry relative="1" as="geometry">
            <Array as="points">
              <mxPoint x="420" y="670" />
            </Array>
          </mxGeometry>
        </mxCell>
        <mxCell id="iQWYw39QzCIdHBORsN6B-102" value="Diagoriente" style="shape=umlActor;verticalLabelPosition=middle;verticalAlign=middle;html=1;outlineConnect=0;labelPosition=left;align=right;fontSize=12;fontStyle=1" parent="1" vertex="1">
          <mxGeometry x="140" y="630" width="30" height="60" as="geometry" />
        </mxCell>
        <mxCell id="iQWYw39QzCIdHBORsN6B-125" style="edgeStyle=orthogonalEdgeStyle;rounded=0;jumpStyle=arc;orthogonalLoop=1;jettySize=auto;html=1;strokeColor=#000000;strokeWidth=1;fontSize=12;fontColor=#000000;endArrow=none;endFill=0;fontStyle=1" parent="1" source="iQWYw39QzCIdHBORsN6B-104" target="iQWYw39QzCIdHBORsN6B-1" edge="1">
          <mxGeometry relative="1" as="geometry">
            <Array as="points">
              <mxPoint x="350" y="380" />
              <mxPoint x="350" y="380" />
            </Array>
          </mxGeometry>
        </mxCell>
        <mxCell id="iQWYw39QzCIdHBORsN6B-104" value="pages spécifiques établissements" style="rounded=1;whiteSpace=wrap;html=1;strokeColor=#6c8ebf;strokeWidth=1;fontSize=12;fillColor=#dae8fc;fontStyle=1" parent="1" vertex="1">
          <mxGeometry x="220" y="360" width="120" height="50" as="geometry" />
        </mxCell>
        <mxCell id="iQWYw39QzCIdHBORsN6B-106" value="page" style="edgeStyle=orthogonalEdgeStyle;rounded=0;jumpStyle=arc;orthogonalLoop=1;jettySize=auto;html=1;strokeColor=#000000;strokeWidth=1;fontSize=12;fontColor=#000000;endArrow=none;endFill=0;fontStyle=1" parent="1" source="iQWYw39QzCIdHBORsN6B-105" target="iQWYw39QzCIdHBORsN6B-104" edge="1">
          <mxGeometry relative="1" as="geometry">
            <mxPoint x="280" y="420" as="targetPoint" />
            <Array as="points">
              <mxPoint x="280" y="520" />
            </Array>
          </mxGeometry>
        </mxCell>
        <mxCell id="iQWYw39QzCIdHBORsN6B-105" value="CCI" style="shape=umlActor;verticalLabelPosition=middle;verticalAlign=middle;html=1;outlineConnect=0;strokeColor=#000000;strokeWidth=1;fontColor=#000000;labelPosition=left;align=right;fontSize=12;fontStyle=1" parent="1" vertex="1">
          <mxGeometry x="170" y="480" width="30" height="60" as="geometry" />
        </mxCell>
        <mxCell id="iQWYw39QzCIdHBORsN6B-128" style="edgeStyle=orthogonalEdgeStyle;rounded=0;jumpStyle=arc;orthogonalLoop=1;jettySize=auto;html=1;strokeColor=#000000;strokeWidth=1;fontSize=12;fontColor=#000000;endArrow=none;endFill=0;fontStyle=1" parent="1" source="iQWYw39QzCIdHBORsN6B-107" target="iQWYw39QzCIdHBORsN6B-1" edge="1">
          <mxGeometry relative="1" as="geometry">
            <Array as="points">
              <mxPoint x="240" y="350" />
              <mxPoint x="240" y="350" />
            </Array>
          </mxGeometry>
        </mxCell>
        <mxCell id="iQWYw39QzCIdHBORsN6B-107" value="page spécifiques conventions" style="rounded=1;whiteSpace=wrap;html=1;strokeColor=#6c8ebf;strokeWidth=1;fontSize=12;fillColor=#dae8fc;fontStyle=1" parent="1" vertex="1">
          <mxGeometry x="20" y="340" width="120" height="50" as="geometry" />
        </mxCell>
        <mxCell id="iQWYw39QzCIdHBORsN6B-113" value="iframe" style="edgeStyle=orthogonalEdgeStyle;rounded=0;jumpStyle=arc;orthogonalLoop=1;jettySize=auto;html=1;strokeColor=#000000;strokeWidth=1;fontSize=12;fontColor=#000000;endArrow=none;endFill=0;fontStyle=1" parent="1" source="iQWYw39QzCIdHBORsN6B-110" target="iQWYw39QzCIdHBORsN6B-104" edge="1">
          <mxGeometry relative="1" as="geometry">
            <Array as="points">
              <mxPoint x="290" y="570" />
            </Array>
          </mxGeometry>
        </mxCell>
        <mxCell id="iQWYw39QzCIdHBORsN6B-134" style="edgeStyle=orthogonalEdgeStyle;rounded=0;jumpStyle=arc;orthogonalLoop=1;jettySize=auto;html=1;strokeColor=#000000;strokeWidth=1;fontSize=12;fontColor=#000000;endArrow=none;endFill=0;fontStyle=1" parent="1" source="iQWYw39QzCIdHBORsN6B-110" target="iQWYw39QzCIdHBORsN6B-93" edge="1">
          <mxGeometry relative="1" as="geometry">
            <Array as="points">
              <mxPoint x="420" y="570" />
            </Array>
          </mxGeometry>
        </mxCell>
        <mxCell id="iQWYw39QzCIdHBORsN6B-110" value="un jeune&lt;br style=&quot;font-size: 12px;&quot;&gt;une solution" style="shape=umlActor;verticalLabelPosition=middle;verticalAlign=middle;html=1;outlineConnect=0;strokeColor=#000000;strokeWidth=1;fontColor=#000000;labelPosition=left;align=right;fontSize=12;fontStyle=1" parent="1" vertex="1">
          <mxGeometry x="140" y="530" width="30" height="60" as="geometry" />
        </mxCell>
        <mxCell id="iQWYw39QzCIdHBORsN6B-112" value="iframe" style="edgeStyle=orthogonalEdgeStyle;rounded=0;jumpStyle=arc;orthogonalLoop=1;jettySize=auto;html=1;strokeColor=#000000;strokeWidth=1;fontSize=12;fontColor=#000000;endArrow=none;endFill=0;fontStyle=1" parent="1" source="iQWYw39QzCIdHBORsN6B-111" target="iQWYw39QzCIdHBORsN6B-104" edge="1">
          <mxGeometry relative="1" as="geometry">
            <Array as="points">
              <mxPoint x="260" y="420" />
            </Array>
          </mxGeometry>
        </mxCell>
        <mxCell id="iQWYw39QzCIdHBORsN6B-111" value="Les entreprises&lt;br style=&quot;font-size: 12px;&quot;&gt;s&#39;engagent" style="shape=umlActor;verticalLabelPosition=middle;verticalAlign=middle;html=1;outlineConnect=0;strokeColor=#000000;strokeWidth=1;fontColor=#000000;labelPosition=left;align=right;fontSize=12;fontStyle=1" parent="1" vertex="1">
          <mxGeometry x="170" y="380" width="30" height="60" as="geometry" />
        </mxCell>
        <mxCell id="iQWYw39QzCIdHBORsN6B-117" value="Front&amp;nbsp; Email assets" style="shape=note;whiteSpace=wrap;html=1;backgroundOutline=1;darkOpacity=0.05;strokeColor=#6c8ebf;strokeWidth=1;fontSize=12;fillColor=#dae8fc;verticalAlign=bottom;fontStyle=1" parent="1" vertex="1">
          <mxGeometry x="1280" y="800" width="60" height="80" as="geometry" />
        </mxCell>
        <mxCell id="iQWYw39QzCIdHBORsN6B-119" style="edgeStyle=orthogonalEdgeStyle;rounded=0;jumpStyle=arc;orthogonalLoop=1;jettySize=auto;html=1;strokeColor=#000000;strokeWidth=1;fontSize=12;fontColor=#7F00FF;endArrow=none;endFill=0;fontStyle=1" parent="1" source="iQWYw39QzCIdHBORsN6B-118" target="iQWYw39QzCIdHBORsN6B-117" edge="1">
          <mxGeometry relative="1" as="geometry" />
        </mxCell>
        <mxCell id="iQWYw39QzCIdHBORsN6B-118" value="Clever Cloud&lt;br&gt;S3 Bucket" style="rounded=1;whiteSpace=wrap;html=1;fontSize=12;fontStyle=1;fillColor=#ffe6cc;strokeColor=#d79b00;" parent="1" vertex="1">
          <mxGeometry x="1140" y="800" width="120" height="60" as="geometry" />
        </mxCell>
        <mxCell id="iQWYw39QzCIdHBORsN6B-121" value="PassEmploi" style="rounded=1;whiteSpace=wrap;html=1;fontSize=12;fontStyle=1;fillColor=#ffe6cc;strokeColor=#d79b00;" parent="1" vertex="1">
          <mxGeometry x="1280" y="660" width="120" height="60" as="geometry" />
        </mxCell>
        <mxCell id="iQWYw39QzCIdHBORsN6B-123" value="ProConnect" style="rounded=1;whiteSpace=wrap;html=1;fontSize=12;fontStyle=1;fillColor=#ffe6cc;strokeColor=#d79b00;" parent="1" vertex="1">
          <mxGeometry x="1280" y="730" width="120" height="60" as="geometry" />
        </mxCell>
        <mxCell id="iQWYw39QzCIdHBORsN6B-131" value="Build Artefacts" style="shape=note;whiteSpace=wrap;html=1;backgroundOutline=1;darkOpacity=0.05;strokeColor=#b85450;strokeWidth=1;fontSize=12;fillColor=#f8cecc;verticalAlign=bottom;fontStyle=1" parent="1" vertex="1">
          <mxGeometry x="1590" y="210" width="60" height="80" as="geometry" />
        </mxCell>
        <mxCell id="iQWYw39QzCIdHBORsN6B-27" value="Prescripteur" style="shape=umlActor;verticalLabelPosition=middle;verticalAlign=middle;html=1;outlineConnect=0;labelPosition=left;align=right;fontSize=12;fontStyle=1" parent="1" vertex="1">
          <mxGeometry x="180" y="200" width="30" height="60" as="geometry" />
        </mxCell>
        <mxCell id="iQWYw39QzCIdHBORsN6B-140" value="Immersion Facilitée&lt;br style=&quot;font-size: 19px;&quot;&gt;Architecture applicative&lt;br style=&quot;font-size: 19px;&quot;&gt;03/04/2025" style="rounded=0;whiteSpace=wrap;html=1;strokeColor=#666666;strokeWidth=1;fontSize=19;fontColor=#333333;fillColor=#f5f5f5;" parent="1" vertex="1">
          <mxGeometry x="1400" y="10" width="250" height="80" as="geometry" />
        </mxCell>
        <mxCell id="iQWYw39QzCIdHBORsN6B-142" value="Utilisateurs Immersion Facilitée&amp;nbsp;" style="rounded=0;whiteSpace=wrap;html=1;dashed=1;strokeColor=#00CCCC;strokeWidth=2;fontSize=12;fontColor=#00CCCC;fillColor=none;align=right;verticalAlign=top;fontStyle=1" parent="1" vertex="1">
          <mxGeometry x="10" y="80" width="340" height="240" as="geometry" />
        </mxCell>
        <mxCell id="iQWYw39QzCIdHBORsN6B-143" value="Utilisateurs partenaires" style="rounded=0;whiteSpace=wrap;html=1;dashed=1;strokeColor=#006600;strokeWidth=2;fontSize=12;fontColor=#006600;fillColor=none;align=right;verticalAlign=bottom;fontStyle=1" parent="1" vertex="1">
          <mxGeometry x="10" y="330" width="340" height="470" as="geometry" />
        </mxCell>
        <mxCell id="iQWYw39QzCIdHBORsN6B-144" value="" style="rounded=0;whiteSpace=wrap;html=1;strokeWidth=1;fontSize=19;fillColor=#f5f5f5;fontColor=#333333;strokeColor=#666666;" parent="1" vertex="1">
          <mxGeometry x="10" y="1060" width="150" height="100" as="geometry" />
        </mxCell>
        <mxCell id="iQWYw39QzCIdHBORsN6B-145" value="" style="endArrow=none;html=1;rounded=0;strokeColor=#6c8ebf;strokeWidth=4;fontSize=12;fontColor=#A9C4EB;jumpStyle=arc;align=center;labelPosition=center;verticalLabelPosition=middle;verticalAlign=middle;fillColor=#dae8fc;" parent="1" target="iQWYw39QzCIdHBORsN6B-146" edge="1">
          <mxGeometry width="50" height="50" relative="1" as="geometry">
            <mxPoint x="20" y="1080" as="sourcePoint" />
            <mxPoint x="65" y="1080" as="targetPoint" />
          </mxGeometry>
        </mxCell>
        <mxCell id="iQWYw39QzCIdHBORsN6B-146" value="Frontend" style="text;html=1;strokeColor=none;fillColor=none;align=right;verticalAlign=middle;whiteSpace=wrap;rounded=0;strokeWidth=1;fontSize=12;fontColor=#000000;" parent="1" vertex="1">
          <mxGeometry x="90" y="1070" width="70" height="20" as="geometry" />
        </mxCell>
        <mxCell id="iQWYw39QzCIdHBORsN6B-148" value="" style="endArrow=none;html=1;rounded=0;strokeColor=#d79b00;strokeWidth=4;fontSize=12;fontColor=#006600;jumpStyle=arc;align=center;labelPosition=center;verticalLabelPosition=middle;verticalAlign=middle;fillColor=#ffe6cc;" parent="1" target="iQWYw39QzCIdHBORsN6B-149" edge="1">
          <mxGeometry width="50" height="50" relative="1" as="geometry">
            <mxPoint x="20" y="1100" as="sourcePoint" />
            <mxPoint x="65" y="1100" as="targetPoint" />
          </mxGeometry>
        </mxCell>
        <mxCell id="iQWYw39QzCIdHBORsN6B-149" value="Backend" style="text;html=1;strokeColor=none;fillColor=none;align=right;verticalAlign=middle;whiteSpace=wrap;rounded=0;strokeWidth=1;fontSize=12;fontColor=#000000;" parent="1" vertex="1">
          <mxGeometry x="90" y="1090" width="70" height="20" as="geometry" />
        </mxCell>
        <mxCell id="iQWYw39QzCIdHBORsN6B-150" value="" style="endArrow=none;html=1;rounded=0;strokeColor=#b85450;strokeWidth=4;fontSize=12;fontColor=#006600;jumpStyle=arc;align=center;labelPosition=center;verticalLabelPosition=middle;verticalAlign=middle;fillColor=#f8cecc;" parent="1" target="iQWYw39QzCIdHBORsN6B-151" edge="1">
          <mxGeometry width="50" height="50" relative="1" as="geometry">
            <mxPoint x="20" y="1120" as="sourcePoint" />
            <mxPoint x="65" y="1120" as="targetPoint" />
          </mxGeometry>
        </mxCell>
        <mxCell id="iQWYw39QzCIdHBORsN6B-151" value="DevOps" style="text;html=1;strokeColor=none;fillColor=none;align=right;verticalAlign=middle;whiteSpace=wrap;rounded=0;strokeWidth=1;fontSize=12;fontColor=#000000;" parent="1" vertex="1">
          <mxGeometry x="90" y="1110" width="70" height="20" as="geometry" />
        </mxCell>
        <mxCell id="iQWYw39QzCIdHBORsN6B-152" value="" style="endArrow=none;html=1;rounded=0;strokeColor=#82b366;strokeWidth=4;fontSize=12;fontColor=#006600;jumpStyle=arc;align=center;labelPosition=center;verticalLabelPosition=middle;verticalAlign=middle;fillColor=#d5e8d4;" parent="1" target="iQWYw39QzCIdHBORsN6B-153" edge="1">
          <mxGeometry width="50" height="50" relative="1" as="geometry">
            <mxPoint x="20" y="1140" as="sourcePoint" />
            <mxPoint x="65" y="1140" as="targetPoint" />
          </mxGeometry>
        </mxCell>
        <mxCell id="iQWYw39QzCIdHBORsN6B-153" value="Tools" style="text;html=1;strokeColor=none;fillColor=none;align=right;verticalAlign=middle;whiteSpace=wrap;rounded=0;strokeWidth=1;fontSize=12;fontColor=#000000;" parent="1" vertex="1">
          <mxGeometry x="90" y="1130" width="70" height="20" as="geometry" />
        </mxCell>
        <mxCell id="iQWYw39QzCIdHBORsN6B-154" value="Scalingo CLI" style="rounded=1;whiteSpace=wrap;html=1;fontSize=12;fontStyle=1;fillColor=#f8cecc;strokeColor=#b85450;" parent="1" vertex="1">
          <mxGeometry x="710" y="720" width="120" height="60" as="geometry" />
        </mxCell>
        <mxCell id="OQy9jzIz-Btu5Pu-kquY-2" value="Diagoriente" style="rounded=1;whiteSpace=wrap;html=1;fontSize=12;fontStyle=1;fillColor=#ffe6cc;strokeColor=#d79b00;" vertex="1" parent="1">
          <mxGeometry x="1430" y="520" width="120" height="60" as="geometry" />
        </mxCell>
        <mxCell id="OQy9jzIz-Btu5Pu-kquY-3" style="edgeStyle=orthogonalEdgeStyle;rounded=0;orthogonalLoop=1;jettySize=auto;html=1;endArrow=none;endFill=0;fontSize=12;fontStyle=1" edge="1" parent="1" target="OQy9jzIz-Btu5Pu-kquY-2">
          <mxGeometry relative="1" as="geometry">
            <mxPoint x="1410" y="480" as="sourcePoint" />
            <mxPoint x="1430" y="490" as="targetPoint" />
            <Array as="points">
              <mxPoint x="1420" y="481" />
            </Array>
          </mxGeometry>
        </mxCell>
      </root>
    </mxGraphModel>
  </diagram>
</mxfile>
